<svg xmlns="http://www.w3.org/2000/svg" width="175" height="9.996" viewBox="0 0 175 9.996">
  <g id="head-pattern" transform="translate(-706 -827.627)">
    <rect id="Rectangle_723" data-name="Rectangle 723" width="60" height="2" rx="1" transform="translate(706 832)" fill="#26bd68"/>
    <rect id="Rectangle_724" data-name="Rectangle 724" width="60" height="2" rx="1" transform="translate(821 832)" fill="#26bd68"/>
    <g id="Group_5305" data-name="Group 5305" transform="translate(-10.848 -2.373)">
      <path id="Icon_awesome-heart" data-name="Icon awesome-heart" d="M10.315.683a3.051,3.051,0,0,0-4.163.3l-.44.453L5.273.987a3.051,3.051,0,0,0-4.163-.3A3.2,3.2,0,0,0,.888,5.322L5.206,9.78a.7.7,0,0,0,1.011,0l4.317-4.458A3.2,3.2,0,0,0,10.315.683Z" transform="translate(780.996 830)" fill="#26bd68"/>
      <path id="Icon_awesome-heart-2" data-name="Icon awesome-heart" d="M10.315.683a3.051,3.051,0,0,0-4.163.3l-.44.453L5.273.987a3.051,3.051,0,0,0-4.163-.3A3.2,3.2,0,0,0,.888,5.322L5.206,9.78a.7.7,0,0,0,1.011,0l4.317-4.458A3.2,3.2,0,0,0,10.315.683Z" transform="translate(798.132 830)" fill="#26bd68"/>
      <path id="Icon_awesome-heart-3" data-name="Icon awesome-heart" d="M10.315.683a3.051,3.051,0,0,0-4.163.3l-.44.453L5.273.987a3.051,3.051,0,0,0-4.163-.3A3.2,3.2,0,0,0,.888,5.322L5.206,9.78a.7.7,0,0,0,1.011,0l4.317-4.458A3.2,3.2,0,0,0,10.315.683Z" transform="translate(815.268 830)" fill="#26bd68"/>
    </g>
  </g>
</svg>
