<svg xmlns="http://www.w3.org/2000/svg" xmlns:xlink="http://www.w3.org/1999/xlink" width="555" height="274.051" viewBox="0 0 555 274.051">
  <defs>
    <linearGradient id="linear-gradient" x1="0.5" x2="0.5" y2="1" gradientUnits="objectBoundingBox">
      <stop offset="0" stop-color="#26bd68"/>
      <stop offset="1" stop-color="#066759"/>
    </linearGradient>
    <linearGradient id="linear-gradient-2" x1="0.5" x2="0.5" y2="1" gradientUnits="objectBoundingBox">
      <stop offset="0" stop-color="#066759"/>
      <stop offset="1" stop-color="#26bd68"/>
    </linearGradient>
  </defs>
  <g id="high-secuarity" transform="translate(-815 -1265)">
    <g id="Message" transform="translate(815 1265)">
      <g id="phone" transform="translate(98.413 0)">
        <g id="Group_6503" data-name="Group 6503">
          <g id="Group_6502" data-name="Group 6502">
            <path id="Path_5802" data-name="Path 5802" d="M791.5,466.678c-2.122-12.568-21.476-18.242-21.1-10.039l-88.726.52c-6.145.036-11.128,5.565-11.134,12.355l-.184,233.35c-.006,7.034,5.064,12.785,11.327,12.839l90.575.777a7.251,7.251,0,0,0,3.272,3.152c10.387.221,15.37-4.909,17.189-10.708a13.963,13.963,0,0,0,.9-5.09C793.256,700.8,792.152,469.626,791.5,466.678Z" transform="translate(-658.87 -452.798)" fill="#066759"/>
            <path id="Path_5803" data-name="Path 5803" d="M735.925,719.78l-103.967-.67c-6.488-.042-11.736-5.949-11.724-13.186l.39-239.979c.011-6.98,5.176-12.649,11.538-12.67l101.948-.331c6.413-.021,11.657,5.641,11.711,12.652l1.848,241.089C747.724,713.955,742.465,719.822,735.925,719.78Z" transform="translate(-620.234 -452.91)" fill="#066759"/>
            <path id="Path_5804" data-name="Path 5804" d="M743.265,723.417a9.372,9.372,0,0,1-1.313.082l-103.935-.786c-5.575-.042-10.132-5.221-10.122-11.538l.359-239.716c.009-6.093,4.494-11.066,9.962-11.089l101.941-.444c.16,0,.321,0,.479.01a9.646,9.646,0,0,1,6.754,3.287,11.522,11.522,0,0,1,2.872,7.632l1.823,241.333C752.128,717.908,748.349,722.735,743.265,723.417Z" transform="translate(-626.139 -458.292)"/>
            <path id="Path_5805" data-name="Path 5805" d="M758.32,512.919l1.753,240.493-117.088-.7.3-239.792Z" transform="translate(-637.772 -499.143)" fill="url(#linear-gradient)"/>
          </g>
        </g>
        <g id="Group_6509" data-name="Group 6509" transform="translate(38.673 49.178)">
          <g id="Group_6507" data-name="Group 6507">
            <g id="Group_6506" data-name="Group 6506">
              <g id="Group_6505" data-name="Group 6505">
                <g id="Group_6504" data-name="Group 6504" transform="translate(0.414 0.609)">
                  <path id="Union_2" data-name="Union 2" d="M-1388.5-14230.511c.075-16.687.09-20.31.093-20.961,9.784-2.145,18.931-7.175,24.659-13.314l.043.043c-.353.881-.807,2.106-1.3,3.67.491-1.563.945-2.789,1.3-3.67,5.678,6.169,14.674,11.263,24.416,13.489,0,.652-.018,4.274-.093,20.965-.1,22.261-21.555,33.126-24.741,34.59a153.592,153.592,0,0,1-4.778-36.743,153.621,153.621,0,0,0,4.778,36.747C-1367.413-14197.367-1388.6-14208.247-1388.5-14230.511Z" transform="translate(1388.5 14264.787)" stroke="rgba(0,0,0,0)" stroke-miterlimit="10" stroke-width="1" fill="url(#linear-gradient-2)"/>
                </g>
                <path id="Path_5808" data-name="Path 5808" d="M813.791,737.575l-.179-.091a53.43,53.43,0,0,1-13.565-9.76c-7.367-7.387-11.081-15.941-11.039-25.423l.095-21.3.324-.071c9.549-2.092,18.688-7.023,24.446-13.191l.3-.326.346.372c5.718,6.213,14.766,11.209,24.2,13.365l.324.074,0,.332c0,.562-.015,3.32-.066,14.705l-.028,6.258c-.1,22.856-22.436,33.8-24.983,34.967Zm-23.862-55.9-.092,20.633c-.089,19.813,16.586,30.564,23.971,34.349,3.221-1.518,24.221-12.257,24.319-34.133l.028-6.258c.044-9.948.059-13.309.064-14.375-9.337-2.2-18.273-7.126-24.045-13.257C808.359,674.7,799.351,679.543,789.929,681.672Z" transform="translate(-789.007 -667.417)" fill="#fff"/>
              </g>
              <path id="Path_5809" data-name="Path 5809" d="M825.576,750.827l-.378-.2a46.816,46.816,0,0,1-11.1-8.115c-6.578-6.547-9.895-14.111-9.857-22.482l.083-18.431.619-.159a48.291,48.291,0,0,0,20.337-10.561l.569-.522.6.568a48.322,48.322,0,0,0,20.2,10.7l.618.165-.083,18.432c-.037,8.371-3.421,15.9-10.058,22.393a47.049,47.049,0,0,1-10.856,7.853l-.056.029-.258.133Zm-19.6-47.942-.076,17.156c-.036,7.911,3.117,15.077,9.369,21.3a45.188,45.188,0,0,0,10.314,7.619,45.358,45.358,0,0,0,10.384-7.526c6.307-6.166,9.523-13.3,9.559-21.215l.077-17.157a50.175,50.175,0,0,1-19.766-10.45A50.174,50.174,0,0,1,805.977,702.885Z" transform="translate(-800.751 -685.103)" fill="#e4e7ee"/>
            </g>
          </g>
          <g id="Group_6508" data-name="Group 6508" transform="translate(15.211 21.645)">
            <path id="Path_5810" data-name="Path 5810" d="M855.389,806.479v14.613c0,1.627,19.867,1.627,19.867,0V806.479Zm10.939,7.76v4.142a1,1,0,1,1-2.01,0V814.23a2.444,2.444,0,1,1,2.01.009Z" transform="translate(-855.389 -796.259)" fill="#e4e7ee"/>
            <path id="Path_5811" data-name="Path 5811" d="M879.372,771.056h-2.011v-.984a6.183,6.183,0,1,0-12.366,0v.984h-2.011v-.984a8.194,8.194,0,1,1,16.388,0Z" transform="translate(-861.244 -761.878)" fill="#e4e7ee"/>
          </g>
        </g>
        <g id="Group_6512" data-name="Group 6512" transform="translate(34.16 130.462)">
          <g id="Group_6511" data-name="Group 6511">
            <rect id="Rectangle_1753" data-name="Rectangle 1753" width="57.43" height="11.351" fill="#def4e9"/>
            <g id="Group_6510" data-name="Group 6510" transform="translate(9.001 3.587)">
              <ellipse id="Ellipse_2059" data-name="Ellipse 2059" cx="2.479" cy="2.479" rx="2.479" ry="2.479" fill="#066759"/>
              <ellipse id="Ellipse_2060" data-name="Ellipse 2060" cx="2.479" cy="2.479" rx="2.479" ry="2.479" transform="translate(8.499)" fill="#066759"/>
              <ellipse id="Ellipse_2061" data-name="Ellipse 2061" cx="2.479" cy="2.479" rx="2.479" ry="2.479" transform="translate(16.999)" fill="#066759"/>
              <ellipse id="Ellipse_2062" data-name="Ellipse 2062" cx="2.479" cy="2.479" rx="2.479" ry="2.479" transform="translate(25.498)" fill="#066759"/>
              <ellipse id="Ellipse_2063" data-name="Ellipse 2063" cx="2.479" cy="2.479" rx="2.479" ry="2.479" transform="translate(33.998)" fill="#066759"/>
            </g>
          </g>
          <path id="Path_5812" data-name="Path 5812" d="M862.164,1114.782H846.793a3.946,3.946,0,0,1-3.946-3.946h0a3.946,3.946,0,0,1,3.946-3.946h15.371a3.946,3.946,0,0,1,3.945,3.946h0A3.945,3.945,0,0,1,862.164,1114.782Z" transform="translate(-825.997 -1087.474)" fill="#26bd68"/>
        </g>
        <g id="Group_6513" data-name="Group 6513" transform="translate(24.752 171.416)">
          <rect id="Rectangle_1754" data-name="Rectangle 1754" width="47.365" height="3.552" transform="translate(15.262 0)" fill="#80d1ff"/>
          <rect id="Rectangle_1755" data-name="Rectangle 1755" width="78.547" height="3.552" transform="translate(0 7.894)" fill="#80d1ff"/>
          <rect id="Rectangle_1756" data-name="Rectangle 1756" width="71.968" height="3.552" transform="translate(3.289 15.788)" fill="#80d1ff"/>
        </g>
      </g>
      <g id="male_02" data-name="male 02" transform="translate(27.099 135.371)">
        <g id="Group_6526" data-name="Group 6526" transform="translate(0 22.437)">
          <path id="Path_5813" data-name="Path 5813" d="M384.769,1205.311c-5.685,5.754-10.647,11.419-15.418,21.948-1.321-3.429-1-2.676-4.185-10.219-1.466-3.545-10.943-1.541-11.182,1.579,0,0-1.7,21.726,8.331,30.282s38.318-27.168,38.318-27.168C409.668,1209.39,394.491,1197.6,384.769,1205.311Z" transform="translate(-343.594 -1188.792)" fill="#007382"/>
          <g id="Group_6517" data-name="Group 6517" transform="translate(10.414 73.506)">
            <path id="Path_5814" data-name="Path 5814" d="M458.028,1481.952c-10.665,20.808-88.456,13.4-101.846,2.075-9.9-14.526,25.95-21.624,26.744-21.646,17.618-.48,41.894,1.086,50.84,1.086C454.568,1466.663,460.37,1474.031,458.028,1481.952Z" transform="translate(-354.456 -1462.29)" fill="#092e66"/>
            <path id="Path_5815" data-name="Path 5815" d="M477.985,1509.991c14.47,3.43,27.309,4.554,43.09,2.135,0,0-24.172,10.684-24.3,11.079S477.985,1509.991,477.985,1509.991Z" transform="translate(-449.68 -1499.061)" fill="#051733"/>
            <path id="Path_5816" data-name="Path 5816" d="M559.8,1512.188c-15.582,17.253-82.081,15.594-69.289-.093,11.608-1.451,43.5-9.206,46.317-10.729C546.63,1493.42,566.14,1502.851,559.8,1512.188Z" transform="translate(-458.085 -1490.114)" fill="#092e66"/>
            <g id="Group_6516" data-name="Group 6516" transform="translate(1.067 6.184)">
              <g id="Group_6514" data-name="Group 6514" transform="translate(63.975 19.56)">
                <path id="Path_5817" data-name="Path 5817" d="M707.25,1588.63c-.771-3.472-4.774-5.683-9.049-7.076a22.918,22.918,0,0,0-5.091,14.391C702.6,1598.075,708.575,1594.593,707.25,1588.63Z" transform="translate(-680.553 -1579.969)" fill="#73ccff"/>
                <path id="Path_5818" data-name="Path 5818" d="M643.922,1574.672s-3.976-.679-5.14,4.073c-.4,1.613-1.552,4.849,2.328,7.371,3.87,2.131,6.547,3.777,9.758,4.5a22.918,22.918,0,0,1,5.091-14.391A39.815,39.815,0,0,0,643.922,1574.672Z" transform="translate(-638.31 -1574.638)" fill="#aae0ff"/>
              </g>
              <path id="Path_5819" data-name="Path 5819" d="M427.455,1509.418c7.588,1.819,3.69,11.174-.218,10.62,4.257.6-75.355.613-67.589-23.467h.031c2.969-5.071,12.245-9.453,19.758-6.146C396.84,1499.662,413.265,1506.071,427.455,1509.418Z" transform="translate(-359.115 -1489.276)" fill="#092e66"/>
              <g id="Group_6515" data-name="Group 6515" transform="translate(66.265 21.093)">
                <path id="Path_5820" data-name="Path 5820" d="M653.225,1590.481s-6.771-.53-4.423-5.971,7.111-2.25,7.111-2.25S658.454,1587.813,653.225,1590.481Z" transform="translate(-648.307 -1581.329)" fill="#aae0ff"/>
                <path id="Path_5821" data-name="Path 5821" d="M670.13,1593.96a.31.31,0,0,1-.309-.3,12.119,12.119,0,0,1,3.013-8.33.309.309,0,0,1,.445.429,11.71,11.71,0,0,0-2.841,7.88.309.309,0,0,1-.3.32Z" transform="translate(-664.886 -1584.341)" fill="#fff"/>
                <path id="Path_5822" data-name="Path 5822" d="M678.482,1597.154a.309.309,0,0,1-.309-.3,12.119,12.119,0,0,1,3.013-8.33.309.309,0,0,1,.445.429,11.709,11.709,0,0,0-2.841,7.879.309.309,0,0,1-.3.32Z" transform="translate(-671.325 -1586.804)" fill="#fff"/>
                <path id="Path_5823" data-name="Path 5823" d="M687.325,1599.365a.309.309,0,0,1-.309-.3,12.121,12.121,0,0,1,3.013-8.33.309.309,0,0,1,.445.429,11.712,11.712,0,0,0-2.84,7.88.309.309,0,0,1-.3.32Z" transform="translate(-678.141 -1588.508)" fill="#fff"/>
              </g>
            </g>
            <path id="Path_5824" data-name="Path 5824" d="M425.244,1542.919c-1.623.9-42.649,2.806-65.488-11.9-7.433-4.787-3.523-11.657-3.523-11.657S361.553,1539.271,425.244,1542.919Z" transform="translate(-355.034 -1506.282)" fill="#051733"/>
            <path id="Path_5825" data-name="Path 5825" d="M493.969,1513.155a.462.462,0,0,1-.132-.019c-29.573-8.76-43.2-17.831-43.329-17.921a.464.464,0,0,1,.519-.769c.133.09,13.658,9.087,43.074,17.8a.464.464,0,0,1-.131.908Z" transform="translate(-428.341 -1487.016)" fill="#051733"/>
            <path id="Path_5826" data-name="Path 5826" d="M557.568,1522.433a.464.464,0,0,1-.081-.921c.187-.033,18.833-3.388,26.052-6.482a.464.464,0,0,1,.366.853c-7.317,3.136-25.484,6.4-26.254,6.542A.469.469,0,0,1,557.568,1522.433Z" transform="translate(-510.67 -1502.917)" fill="#051733"/>
          </g>
          <path id="Path_5827" data-name="Path 5827" d="M515.116,1254.6c.649,4.974-34.763,6.161-52.875-1.049-2.709-11.229-12.059-62.339,15.871-62.184C508.267,1191.534,512.25,1241.045,515.116,1254.6Z" transform="translate(-424.284 -1179.941)" fill="#007382"/>
          <path id="Path_5828" data-name="Path 5828" d="M357.57,1246.125l-.417-6.327,6.652-1,2.513,5.689C366.6,1246.168,357.854,1247.808,357.57,1246.125Z" transform="translate(-346.121 -1216.501)" fill="#f7a594"/>
          <g id="Group_6519" data-name="Group 6519" transform="translate(0 3.495)">
            <path id="Path_5829" data-name="Path 5829" d="M371.582,1208.364l1.612-10.254s-2.344-.659-2.564,2.124-4.761,4.541-3.589,7.251S371.582,1208.364,371.582,1208.364Z" transform="translate(-353.595 -1188.58)" fill="#f7a594"/>
            <path id="Path_5830" data-name="Path 5830" d="M339.859,1197.3s-4.988-7.619-5.42-11.939c-.045-1.582.659-2.051.659-2.051l11.353,11.133s.732,2.271-.146,3.223A4.461,4.461,0,0,1,339.859,1197.3Z" transform="translate(-328.61 -1177.228)" fill="#f7a594"/>
            <path id="Path_5831" data-name="Path 5831" d="M374.818,1219.423s.115,1.8-.918,1.432c-3.033-.888-3.213-5.343-3.213-5.343Z" transform="translate(-356.554 -1202.049)" fill="#cc7767"/>
            <g id="Group_6518" data-name="Group 6518">
              <path id="Path_5832" data-name="Path 5832" d="M333.042,1176.373l-21.119-19.616a2.172,2.172,0,0,0-1.208.269l22.272,20.425A2.706,2.706,0,0,0,333.042,1176.373Z" transform="translate(-310.324 -1156.753)" fill="#404040"/>
              <path id="Path_5833" data-name="Path 5833" d="M309.4,1157.942c-.321.221-.526.615-.288,1.342.589,1.8,19.231,18.972,21.119,19.615.921.313,1.295-.065,1.441-.532Z" transform="translate(-309.008 -1157.67)"/>
            </g>
            <path id="Path_5834" data-name="Path 5834" d="M334.437,1185.352s.215-1.764,3.394.4c3.861,2.629,6.454,7.317,5.583,8.518C342.3,1195.8,333.595,1188.867,334.437,1185.352Z" transform="translate(-328.566 -1178.276)" fill="#f7a594"/>
          </g>
          <path id="Path_5835" data-name="Path 5835" d="M468.67,1195.063c-20.03,4.393-14.631,52.23-13.227,62.6,3.788,1.508,16.02,4.489,20.833,5.305C466.647,1240.186,461.592,1197.236,468.67,1195.063Z" transform="translate(-420.563 -1182.789)" fill="#007382"/>
          <path id="Path_5836" data-name="Path 5836" d="M518.337,1154.453c-2.226,10.852-14.161,10.574-14.316,4.483a2.659,2.659,0,0,1-.031-.495l-.958-13.172-.124-1.607,1.051-.217,9.492-1.885.34-.062.278.835,1.206,3.432Z" transform="translate(-458.478 -1141.498)" fill="#f7a594"/>
          <path id="Path_5837" data-name="Path 5837" d="M564.5,1194.427c-3.774,8.87,1.215,55.184,4.67,69.006,9.343,3.157,23.435-1.459,27.2-6.2C593.7,1244.6,589.421,1200.438,564.5,1194.427Z" transform="translate(-504.914 -1182.299)" fill="#007382"/>
          <g id="Group_6525" data-name="Group 6525" transform="translate(34.671 19.901)">
            <path id="Path_5838" data-name="Path 5838" d="M563.568,1236.689c-1.456,7.975,1.318,21.806,3.474,28.995,5.723,4.21,14.617,2.037,14.617-4.433a86.785,86.785,0,0,0-1.673-19.8C578.6,1224.792,564.287,1224.947,563.568,1236.689Z" transform="translate(-539.597 -1228.35)" fill="#007382"/>
            <g id="Group_6520" data-name="Group 6520" transform="translate(8.546 18.736)">
              <path id="Path_5839" data-name="Path 5839" d="M504.269,1310.456c-5.9-2.126-8.931,6.34-4.639,9.278,10.206,6.887,26.056,16.148,28.876,10.246C532.63,1321.35,517.7,1314.713,504.269,1310.456Z" transform="translate(-497.614 -1310.117)" fill="#007382"/>
            </g>
            <g id="Group_6524" data-name="Group 6524" transform="translate(0 7.575)">
              <path id="Path_5840" data-name="Path 5840" d="M485.491,1313.148l-4.364-2.308c-2.743-2.126,2.087-6.5,4.046-5.795l3.394,2.13C490.287,1308.8,487.844,1312.967,485.491,1313.148Z" transform="translate(-475.724 -1294.988)" fill="#f7a594"/>
              <g id="Group_6523" data-name="Group 6523">
                <g id="Group_6521" data-name="Group 6521" transform="translate(3.411 3.582)">
                  <path id="Path_5841" data-name="Path 5841" d="M477.611,1289.405c-3.572-.761-2.337-4.368-1.532-8.489C473.2,1268.554,488.932,1289.734,477.611,1289.405Z" transform="translate(-475.202 -1277.039)" fill="#f7a594"/>
                </g>
                <path id="Path_5842" data-name="Path 5842" d="M476.145,1267.282s-1.166-1.817-3.733-5.874c-1.157.219-1.775,2.25-.22,4.028C473.558,1267,475.535,1268.057,476.145,1267.282Z" transform="translate(-468.753 -1261.408)" fill="#f7a594"/>
                <g id="Group_6522" data-name="Group 6522" transform="translate(0 4.496)">
                  <path id="Path_5843" data-name="Path 5843" d="M464.2,1281.325c-2.58-1.461-4.417,2.792-3.74,6.115,1.037,5.083,4.819,2.573,5.95,1.216C468.475,1286.172,467.358,1283.115,464.2,1281.325Z" transform="translate(-460.316 -1281.029)" fill="#f7a594"/>
                </g>
              </g>
            </g>
            <path id="Path_5844" data-name="Path 5844" d="M562.936,1261.562a.309.309,0,0,1-.3-.259c-.019-.113-1.848-11.382.413-19a.309.309,0,0,1,.593.176c-2.22,7.478-.414,18.608-.4,18.72a.309.309,0,0,1-.254.355A.3.3,0,0,1,562.936,1261.562Z" transform="translate(-538.635 -1238.938)" fill="#003331"/>
            <path id="Path_5845" data-name="Path 5845" d="M574.109,1319.91c-5.093,0-11.131-3.2-11.483-3.39a.309.309,0,1,1,.292-.545c.117.063,11.737,6.223,15.987,1.563,3.728-4.089.951-21.8.922-21.975a.309.309,0,0,1,.611-.1c.118.74,2.851,18.182-1.076,22.49A6.825,6.825,0,0,1,574.109,1319.91Z" transform="translate(-539.057 -1279.885)" fill="#003331"/>
            <path id="Path_5846" data-name="Path 5846" d="M537.384,1315.328a.311.311,0,0,1-.125-.026c-7.446-3.31-16.769-6.309-16.862-6.338a.309.309,0,1,1,.189-.589c.094.03,9.448,3.039,16.925,6.362a.309.309,0,0,1-.126.592Z" transform="translate(-506.464 -1290.026)" fill="#003331"/>
          </g>
          <path id="Path_5847" data-name="Path 5847" d="M504.564,1158.857c-.277-2.91-1.876-13.87-.027-15.2l9.492-1.886C516.2,1153.729,508.1,1159.7,504.564,1158.857Z" transform="translate(-459.056 -1141.706)" fill="#d97661"/>
        </g>
        <g id="Group_6528" data-name="Group 6528" transform="translate(25.535)">
          <path id="Path_5848" data-name="Path 5848" d="M464.59,1070.476c-.461,9.781-9.171,17.372-15.65,17.013s-14.442-8.627-13.982-18.408,7.467-17.4,15.65-17.013S465.05,1060.695,464.59,1070.476Z" transform="translate(-431.618 -1050.112)" fill="#f7a594"/>
          <path id="Path_5849" data-name="Path 5849" d="M429.5,1046.917c-8.192-6.722-13.736-2.033-18.852,3.034-3.59,3.557-2.175,6.056-6.112,6.172,6.278,10.292,17.943,6,23.785-2.819-.2,5.405,5.56,10.612,9.988,10.639C440.46,1058.166,437.821,1045.626,429.5,1046.917Z" transform="translate(-405.34 -1043.579)" fill="#0e0e0e"/>
          <ellipse id="Ellipse_2064" data-name="Ellipse 2064" cx="3.378" cy="3.378" rx="3.378" ry="3.378" transform="translate(27.285 18.406) rotate(-15.268)" fill="#f7a594"/>
          <g id="Group_6527" data-name="Group 6527" transform="translate(5.772 17.764)">
            <path id="Path_5850" data-name="Path 5850" d="M475.046,1150.456a1.159,1.159,0,0,1-.681-.192c-.848-.6-.016-5.617.26-7.14a.2.2,0,1,1,.394.071c-.542,3-.858,6.435-.423,6.743.572.4,1.923-.314,2.395-.624a.2.2,0,0,1,.22.335A4.829,4.829,0,0,1,475.046,1150.456Z" transform="translate(-467.496 -1137.952)" fill="#bd4a31"/>
            <path id="Path_5851" data-name="Path 5851" d="M504.472,1133.375c.173.781.626,1.346,1.013,1.26s.561-.788.389-1.57-.626-1.346-1.013-1.26S504.3,1132.594,504.472,1133.375Z" transform="translate(-490.939 -1129.347)" fill="#0e0e0e"/>
            <path id="Path_5852" data-name="Path 5852" d="M450.415,1147.063c.161.729.585,1.256.946,1.177s.524-.736.363-1.465-.585-1.256-.946-1.177S450.254,1146.334,450.415,1147.063Z" transform="translate(-449.272 -1139.98)" fill="#0e0e0e"/>
            <path id="Path_5853" data-name="Path 5853" d="M.722,5.208a4.552,4.552,0,0,1-.549-.029.2.2,0,0,1,.053-.4,4.987,4.987,0,0,0,3.492-.969A4.731,4.731,0,0,0,5.2.194.193.193,0,0,1,5.405,0,.2.2,0,0,1,5.6.207,5.109,5.109,0,0,1,3.973,4.121,5.09,5.09,0,0,1,.722,5.208Z" transform="translate(8.78 10.417) rotate(13)" fill="#803221"/>
            <path id="Path_5854" data-name="Path 5854" d="M497.7,1123.113h-.009a.2.2,0,0,1-.191-.209,1.866,1.866,0,0,1,1.411-1.7,1.936,1.936,0,0,1,2.168.649.2.2,0,0,1-.324.234,1.542,1.542,0,0,0-1.73-.5,1.487,1.487,0,0,0-1.126,1.336A.2.2,0,0,1,497.7,1123.113Z" transform="translate(-485.619 -1121.106)" fill="#803221"/>
            <path id="Path_5855" data-name="Path 5855" d="M445.836,1135.5h-.018a.2.2,0,0,1-.182-.217,1.759,1.759,0,0,1,1.447-1.791,1.694,1.694,0,0,1,1.774,1.194.2.2,0,1,1-.377.132,1.3,1.3,0,0,0-1.347-.929c-.475.059-1.013.466-1.1,1.429A.2.2,0,0,1,445.836,1135.5Z" transform="translate(-445.636 -1130.647)" fill="#803221"/>
          </g>
        </g>
      </g>
      <g id="message-2" data-name="message" transform="translate(0 68.716)">
        <g id="Group_6531" data-name="Group 6531" transform="translate(0 39.978)">
          <g id="Group_6529" data-name="Group 6529">
            <rect id="Rectangle_1757" data-name="Rectangle 1757" width="51.328" height="25.478" rx="12.739" fill="#def4e9"/>
            <path id="Path_5856" data-name="Path 5856" d="M277.209,1030.6v11.494l-11.715-11.715Z" transform="translate(-234.353 -1009.239)" fill="#def4e9"/>
          </g>
          <g id="Group_6530" data-name="Group 6530" transform="translate(6.655 9.813)">
            <circle id="Ellipse_2065" data-name="Ellipse 2065" cx="2.237" cy="2.237" r="2.237" transform="translate(0 3.163) rotate(-45)" fill="#066759"/>
            <ellipse id="Ellipse_2066" data-name="Ellipse 2066" cx="2.237" cy="2.237" rx="2.237" ry="2.237" transform="translate(7.974 4.829) rotate(-76.774)" fill="#066759"/>
            <ellipse id="Ellipse_2067" data-name="Ellipse 2067" cx="2.237" cy="2.237" rx="2.237" ry="2.237" transform="translate(15.473 4.829) rotate(-76.774)" fill="#066759"/>
            <ellipse id="Ellipse_2068" data-name="Ellipse 2068" cx="2.237" cy="2.237" rx="2.237" ry="2.237" transform="translate(23.095 5.013) rotate(-80.783)" fill="#066759"/>
            <circle id="Ellipse_2069" data-name="Ellipse 2069" cx="2.237" cy="2.237" r="2.237" transform="translate(29.998 3.163) rotate(-45)" fill="#066759"/>
          </g>
        </g>
        <g id="Group_6535" data-name="Group 6535" transform="translate(38.842)">
          <g id="Group_6533" data-name="Group 6533">
            <g id="Group_6532" data-name="Group 6532">
              <rect id="Rectangle_1758" data-name="Rectangle 1758" width="37.217" height="30.186" rx="15.093" fill="#def4e9"/>
              <path id="Path_5857" data-name="Path 5857" d="M459.224,891.291l4.264,7.483,4.7-7.483Z" transform="translate(-445.761 -862.044)" fill="#def4e9"/>
            </g>
          </g>
          <g id="Group_6534" data-name="Group 6534" transform="translate(9.754 8.787)">
            <path id="Path_5858" data-name="Path 5858" d="M453.177,807.6l-7.428-5.6h14.82Z" transform="translate(-445.126 -802.001)" fill="#fc6e50"/>
            <path id="Path_5859" data-name="Path 5859" d="M459.1,808.3v9.718H443.035V808.3l8.05,6.038Z" transform="translate(-443.035 -806.854)" fill="#fc6e50"/>
          </g>
        </g>
      </g>
      <g id="shadow" transform="translate(0.66 266.771)">
        <path id="Path_5860" data-name="Path 5860" d="M543.585,1620.121H295.532a1.554,1.554,0,0,1,0-3.092H543.585a1.554,1.554,0,0,1,0,3.092Z" transform="translate(-294.134 -1617.029)"/>
      </g>
    </g>
    <g id="Face_scan" data-name="Face scan" transform="translate(895.375 1269.188)">
      <g id="gear" transform="translate(176.16 36.936)">
        <g id="Group_6536" data-name="Group 6536" transform="translate(0 46.144)">
          <path id="Path_5861" data-name="Path 5861" d="M1590.911,839.4a31.9,31.9,0,0,0-.739,12.375l3.474-.472a28.766,28.766,0,0,0,3.681,10.638l-3.014,1.773a32.008,32.008,0,0,0,8.224,9.276l.477-.618,1.647-2.168a28.479,28.479,0,0,0,10.127,4.907l-.882,3.4a31.668,31.668,0,0,0,12.379.726l-.472-3.474a28.525,28.525,0,0,0,10.634-3.668l1.773,3.015a32.072,32.072,0,0,0,9.279-8.237l-.013,0-.8-.62-1.973-1.5a28.413,28.413,0,0,0,4.9-10.114l3.4.881a31.727,31.727,0,0,0,.729-12.391l-3.474.472a28.467,28.467,0,0,0-3.672-10.622l3.015-1.772a32.069,32.069,0,0,0-8.237-9.279l-2.124,2.787a28.415,28.415,0,0,0-10.113-4.9l.881-3.4a31.732,31.732,0,0,0-12.392-.729l.472,3.474a28.475,28.475,0,0,0-10.622,3.672l-1.772-3.014a31.865,31.865,0,0,0-9.279,8.237l.022.019,1.835,1.4.929.708a28.463,28.463,0,0,0-4.9,10.114Zm16.047,4.163a15.508,15.508,0,1,1,11.108,18.91A15.5,15.5,0,0,1,1606.958,843.565Z" transform="translate(-1589.878 -815.375)" fill="#def4e9"/>
        </g>
        <g id="Group_6537" data-name="Group 6537" transform="translate(36.601)">
          <path id="Path_5862" data-name="Path 5862" d="M1752.21,621.716a17.725,17.725,0,0,0-2.6,6.382l1.912.372a16.006,16.006,0,0,0,.04,6.256l-1.9.4a17.8,17.8,0,0,0,2.674,6.35l.361-.24,1.254-.847a15.83,15.83,0,0,0,4.455,4.39l-1.07,1.631a17.6,17.6,0,0,0,6.386,2.591l.371-1.913a15.853,15.853,0,0,0,6.252-.033l.4,1.9a17.829,17.829,0,0,0,6.354-2.68l-.006,0-.311-.469-.771-1.142a15.794,15.794,0,0,0,4.386-4.448l1.631,1.07a17.632,17.632,0,0,0,2.6-6.392l-1.913-.371a15.822,15.822,0,0,0-.038-6.246l1.9-.4a17.822,17.822,0,0,0-2.68-6.354l-1.615,1.088a15.789,15.789,0,0,0-4.448-4.386l1.07-1.631a17.63,17.63,0,0,0-6.392-2.595l-.371,1.913a15.825,15.825,0,0,0-6.246.037l-.395-1.9a17.709,17.709,0,0,0-6.354,2.68l.008.014.717,1.063.363.538a15.815,15.815,0,0,0-4.386,4.448Zm7.7,5.055a8.619,8.619,0,1,1,2.472,11.936A8.615,8.615,0,0,1,1759.914,626.771Z" transform="translate(-1749.613 -613.996)" fill="none" stroke="#066759" stroke-miterlimit="10" stroke-width="2.138"/>
        </g>
      </g>
      <g id="shadow-2" data-name="shadow" transform="translate(210.36 266.771)">
        <path id="Path_5863" data-name="Path 5863" d="M2001.85,1620.121H1740.676a1.546,1.546,0,1,1,0-3.092H2001.85a1.546,1.546,0,0,1,0,3.092Z" transform="translate(-1739.13 -1617.029)"/>
      </g>
      <g id="phone_02" data-name="phone 02" transform="translate(230.803 0)">
        <g id="Group_6539" data-name="Group 6539">
          <g id="Group_6538" data-name="Group 6538">
            <path id="Path_5864" data-name="Path 5864" d="M1830.47,466.678c2.122-12.568,21.477-18.242,21.1-10.039l88.726.52c6.145.036,11.128,5.565,11.133,12.355l.184,233.35c.005,7.034-5.064,12.785-11.327,12.839l-90.575.777a7.251,7.251,0,0,1-3.272,3.152c-10.387.221-15.37-4.909-17.19-10.708a13.959,13.959,0,0,1-.9-5.09C1828.71,700.8,1829.814,469.626,1830.47,466.678Z" transform="translate(-1828.347 -452.798)" fill="#066759"/>
            <path id="Path_5865" data-name="Path 5865" d="M1872.013,719.78l103.967-.67c6.488-.042,11.736-5.949,11.724-13.186l-.39-239.979c-.011-6.98-5.176-12.649-11.538-12.67l-101.947-.331c-6.413-.021-11.657,5.641-11.711,12.652l-1.848,241.089C1860.214,713.955,1865.472,719.822,1872.013,719.78Z" transform="translate(-1852.954 -452.91)" fill="#066759"/>
            <path id="Path_5866" data-name="Path 5866" d="M1875.586,723.417a9.38,9.38,0,0,0,1.314.082l103.935-.786c5.575-.042,10.132-5.221,10.122-11.538l-.359-239.716c-.009-6.093-4.493-11.066-9.962-11.089l-101.941-.444c-.159,0-.321,0-.479.01a9.646,9.646,0,0,0-6.754,3.287,11.521,11.521,0,0,0-2.872,7.632l-1.823,241.333C1866.723,717.908,1870.5,722.735,1875.586,723.417Z" transform="translate(-1857.963 -458.292)"/>
            <path id="Path_5867" data-name="Path 5867" d="M1884.427,510.483l-1.753,240.493,117.088-.7-.3-239.792Z" transform="translate(-1870.226 -497.265)" fill="url(#linear-gradient)"/>
          </g>
        </g>
        <g id="Group_6540" data-name="Group 6540" transform="translate(31.45 205.083)">
          <rect id="Rectangle_1759" data-name="Rectangle 1759" width="47.365" height="3.552" transform="translate(15.92)" fill="#80d1ff"/>
          <rect id="Rectangle_1760" data-name="Rectangle 1760" width="78.547" height="3.552" transform="translate(78.547 11.447) rotate(180)" fill="#80d1ff"/>
          <rect id="Rectangle_1761" data-name="Rectangle 1761" width="71.968" height="3.552" transform="translate(75.258 19.341) rotate(180)" fill="#80d1ff"/>
        </g>
        <rect id="Rectangle_1762" data-name="Rectangle 1762" width="91.049" height="93.326" rx="41.948" transform="translate(27.058 42.587)" fill="#26bd68"/>
        <g id="Group_6545" data-name="Group 6545" transform="translate(29.639 53.698)">
          <path id="Path_5868" data-name="Path 5868" d="M1986.112,1003.921c4.349-12.678-3.8-34.33-13.356-28.923-9.786,5.437-15.7,19.334-15.005,28.923Z" transform="translate(-1957.696 -908.384)" fill="#008c86"/>
          <path id="Path_5869" data-name="Path 5869" d="M2210.872,1003.921c-4.349-12.678,3.8-34.33,13.356-28.923,9.786,5.437,15.7,19.334,15,28.923Z" transform="translate(-2151.933 -908.384)" fill="#008c86"/>
          <path id="Path_5870" data-name="Path 5870" d="M2077.419,755.826c1.371-13.563,3.761-68.679-29.988-68.679-34.033,0-30.933,54.788-29.787,67.627Z" transform="translate(-2003.425 -687.147)" fill="#0e0e0e"/>
          <path id="Path_5871" data-name="Path 5871" d="M2015.815,961.009c11.961-8.916,50.126-9.133,61.325.544l.152,27.152H2015.67Z" transform="translate(-2002.386 -893.091)" fill="#008c86"/>
          <g id="Group_6542" data-name="Group 6542" transform="translate(25.538 50.348)">
            <g id="Group_6541" data-name="Group 6541" transform="translate(0 11.089)">
              <path id="Path_5872" data-name="Path 5872" d="M2077.487,955.873s-14.039,8.5-5.682,16.353c6.929,6.514,17.046-3.187,17.046-3.187Z" transform="translate(-2069.15 -955.735)" fill="#fff"/>
              <path id="Path_5873" data-name="Path 5873" d="M2152.486,955.269s14.04,8.5,5.682,16.353c-6.929,6.513-17.046-3.188-17.046-3.188Z" transform="translate(-2124.63 -955.269)" fill="#fff"/>
            </g>
            <path id="Path_5874" data-name="Path 5874" d="M2122.06,926.671c0,7.791-22.226,7.791-22.226,0l1.178-12,.772-7.8h18.363l1.251,12.953Z" transform="translate(-2092.802 -906.874)" fill="#ffa599"/>
            <path id="Path_5875" data-name="Path 5875" d="M2125.36,919.827l-20.387-5.151.773-7.8h18.363Z" transform="translate(-2096.765 -906.874)" fill="#e87c5d"/>
          </g>
          <path id="Path_5876" data-name="Path 5876" d="M2098.555,722.9c.688,16.295-9.326,29.5-22.366,29.5s-23.054-13.208-22.366-29.5c.647-15.35,10.646-27.157,22.366-27.157S2097.907,707.552,2098.555,722.9Z" transform="translate(-2031.771 -693.776)" fill="#ffa599"/>
          <path id="Path_5877" data-name="Path 5877" d="M2043.036,714.46l24.141-7.93,25.039,7.93s-2.509-27.311-25.087-27.311S2043.036,714.46,2043.036,714.46Z" transform="translate(-2023.124 -687.149)" fill="#0e0e0e"/>
          <path id="Path_5878" data-name="Path 5878" d="M2140.831,840.586a1.861,1.861,0,0,1-1.469-.517c-.807-.969,1.192-5.838,1.6-6.8a.238.238,0,1,1,.438.186c-.969,2.292-2.13,5.766-1.673,6.313.533.64,2.307.231,2.946.02a.238.238,0,1,1,.149.452A7.074,7.074,0,0,1,2140.831,840.586Z" transform="translate(-2097.589 -799.671)" fill="#bd4a31"/>
          <path id="Path_5879" data-name="Path 5879" d="M2121.456,881.483s6.718,2.652,16.177-1.326C2132.063,886.964,2125.169,890.941,2121.456,881.483Z" transform="translate(-2083.932 -835.931)" fill="#bd4a31"/>
          <g id="Group_6543" data-name="Group 6543" transform="translate(29.9 28.735)">
            <path id="Path_5880" data-name="Path 5880" d="M2094.622,823.677c0,1.2.481,2.172,1.076,2.172s1.076-.972,1.076-2.172-.482-2.172-1.076-2.172S2094.622,822.477,2094.622,823.677Z" transform="translate(-2093.147 -819.453)" fill="#0e0e0e"/>
            <path id="Path_5881" data-name="Path 5881" d="M2092.78,814.122a.238.238,0,0,1-.183-.085c-1.748-2.084-3.93-.339-4.022-.264a.238.238,0,0,1-.3-.369c.027-.021,2.642-2.114,4.688.327a.238.238,0,0,1-.182.391Z" transform="translate(-2088.186 -812.549)" fill="#bd4a31"/>
          </g>
          <g id="Group_6544" data-name="Group 6544" transform="translate(53.146 28.735)">
            <ellipse id="Ellipse_2070" data-name="Ellipse 2070" cx="1.076" cy="2.172" rx="1.076" ry="2.172" transform="translate(1.475 2.052)" fill="#0e0e0e"/>
            <path id="Path_5882" data-name="Path 5882" d="M2194.226,814.122a.237.237,0,0,1-.183-.085c-1.748-2.084-3.93-.339-4.022-.264a.238.238,0,0,1-.3-.369c.026-.021,2.642-2.114,4.688.327a.238.238,0,0,1-.182.391Z" transform="translate(-2189.633 -812.549)" fill="#bd4a31"/>
          </g>
          <ellipse id="Ellipse_2071" data-name="Ellipse 2071" cx="2.889" cy="1.518" rx="2.889" ry="1.518" transform="translate(29.507 37.939)" fill="#ff8f80"/>
          <ellipse id="Ellipse_2072" data-name="Ellipse 2072" cx="2.889" cy="1.518" rx="2.889" ry="1.518" transform="translate(52.188 37.939)" fill="#ff8f80"/>
          <path id="Path_5922" data-name="Path 5922" d="M25.441,31.272S27.4,60.513,45.981,63.5,70.8,37.158,69.987,31.272s3.255,5.913,3.255,5.913l-8.409,26.99-6.285,2.407.494,18.951H35.584V66.149s-15.819-19.4-14.409-22.226,1.939-12.651,1.939-12.651Z" transform="translate(-3.422 -4.809)" fill="#0e0e0e"/>
          <path id="Path_5923" data-name="Path 5923" d="M58.446,92.565S71.7,87.976,76.85,78.753s-58.59-8.952-59.4-.543S35.059,92.565,35.059,92.565Z" transform="translate(-2.827 -11.665)" fill="#0e0e0e"/>
          <path id="Path_5924" data-name="Path 5924" d="M38.477,96.1s13.991,4.432,23.14,0-23.14-1.543-23.14-1.543Z" transform="translate(-6.245 -15.196)" fill="#0e0e0e"/>
        </g>
        <g id="Group_6546" data-name="Group 6546" transform="translate(39.775 55.755)">
          <path id="Path_5883" data-name="Path 5883" d="M2016.651,920.067h-6.271a8.457,8.457,0,0,1-8.447-8.447v-6.5h2.341v6.5a6.113,6.113,0,0,0,6.106,6.106h6.271Z" transform="translate(-2001.933 -857.233)" fill="#fff"/>
          <path id="Path_5884" data-name="Path 5884" d="M2233.652,919.309h-6.128v-2.341h6.128a6.113,6.113,0,0,0,6.106-6.106v-6.723h2.341v6.723A8.456,8.456,0,0,1,2233.652,919.309Z" transform="translate(-2175.833 -856.474)" fill="#fff"/>
          <path id="Path_5885" data-name="Path 5885" d="M2242.858,710.389h-2.341V704.57a6.113,6.113,0,0,0-6.106-6.106h-5.9v-2.341h5.9a8.456,8.456,0,0,1,8.447,8.447Z" transform="translate(-2176.592 -696.123)" fill="#fff"/>
          <path id="Path_5886" data-name="Path 5886" d="M2004.274,711.518h-2.341V704.57a8.457,8.457,0,0,1,8.447-8.447h6.045v2.341h-6.045a6.113,6.113,0,0,0-6.106,6.106Z" transform="translate(-2001.933 -696.123)" fill="#fff"/>
        </g>
        <g id="Group_6548" data-name="Group 6548" transform="translate(63.34 161.637)">
          <g id="Group_6547" data-name="Group 6547">
            <path id="Path_5887" data-name="Path 5887" d="M2104.773,1218.344v14.613c0,1.627,19.867,1.627,19.867,0v-14.613Z" transform="translate(-2104.773 -1204.565)" fill="#26bd68"/>
            <path id="Path_5888" data-name="Path 5888" d="M2128.756,1171.278h-2.011V1166.4a6.183,6.183,0,1,0-12.366,0v.984h-2.011v-.984a8.194,8.194,0,1,1,16.388,0Z" transform="translate(-2110.628 -1158.208)" fill="#26bd68"/>
          </g>
          <path id="Path_5889" data-name="Path 5889" d="M2126.425,1241.781a.767.767,0,0,1-.564-.244l-3.275-3.509a.773.773,0,0,1,1.129-1.057l2.752,2.95,7.7-7.047a.774.774,0,1,1,1.045,1.141l-8.263,7.564A.771.771,0,0,1,2126.425,1241.781Z" transform="translate(-2118.344 -1215.609)" fill="#aae0ff"/>
        </g>
      </g>
      <g id="lady" transform="translate(0 78.494)">
        <g id="Group_6554" data-name="Group 6554">
          <path id="Path_5890" data-name="Path 5890" d="M2651.056,807.512l-45.189.071,9.591,26.179Z" transform="translate(-2196.904 -804.727)" fill="#aae0ff"/>
          <path id="Path_5891" data-name="Path 5891" d="M2552.555,806.5s-16.7,2.71-14.41,36.859c3.018,2.922,33.813-.115,33.813-.115-5.162-5.291-6.862-16.282-7.187-29.537C2564.772,813.71,2564.094,805.245,2552.555,806.5Z" transform="translate(-2144.533 -803.851)" fill="#0e0e0e"/>
          <path id="Path_5892" data-name="Path 5892" d="M2670.528,877.742l18.126-4.9,17.13-15.474,3.329,2.837s-13.208,16.7-16.529,19.681c-2.947,2.646-20.312,10.062-20.312,10.062Z" transform="translate(-2246.749 -843.159)" fill="#008c86"/>
          <path id="Path_5893" data-name="Path 5893" d="M2569.3,954.423c.77,4.171,8.271,22.711,8.271,22.711,0,4.529,21.943,4.529,21.943,0,.264-6.923.882-19.9.788-27.573a21.014,21.014,0,0,0-8.725-10.678C2582.382,936.873,2565.3,939.233,2569.3,954.423Z" transform="translate(-2168.257 -905.523)" fill="#008c86"/>
          <path id="Path_5894" data-name="Path 5894" d="M2543.124,1229.443h19.53c-.485,3.976-2.557,8.294-3.446,11.846-7.951,21.787-11.83,50.954-20.224,70.169,0,0-3.611,1.872-6.009,0,1.639-14.46,1.523-23.427,6.232-47.38C2540.85,1257.109,2540.189,1240.459,2543.124,1229.443Z" transform="translate(-2140.715 -1129.978)" fill="#ffa599"/>
          <path id="Path_5895" data-name="Path 5895" d="M2651.263,1229.443c2.532,24.158,7.188,76.342,7.7,81.728l-6.207.032c-4.07-13.827-9.262-26.234-9.72-43.774-3.167-9.651-8.437-25.884-12.39-37.986Z" transform="translate(-2216.006 -1129.978)" fill="#ffa599"/>
          <path id="Path_5896" data-name="Path 5896" d="M2565.038,1250.469l14.745,1.215,3.58.3,15.828,1.313c.686,6.706,1.452,14.668,2.2,22.856-4.763,1.974-11.413,4.828-11.984,5.083l-7.753-23.735c-2.27,7.394-5.044,17.063-7.14,24.609a58.7,58.7,0,0,0-12.419-4.349C2562.869,1269.015,2563.828,1258.967,2565.038,1250.469Z" transform="translate(-2163.162 -1146.186)" fill="#e87c5d"/>
          <path id="Path_5897" data-name="Path 5897" d="M2619.247,935.34s6.173,4.222,3.867,7.379c-1.986,2.719-6.882-.38-6.882-.38s-.824,4.205-4.116,3.644c-4.577-.78-5.534-7.521-3.618-9.721S2617.012,934.2,2619.247,935.34Z" transform="translate(-2198.214 -902.643)" fill="#fff"/>
          <path id="Path_5898" data-name="Path 5898" d="M2609.991,916.857c.157,1.828,2.97,4.232,6.563,3.71,2.281-.332,3.438-1.969,2.9-3.83l-.6-2.391-1.7-6.817-8.386.988Z" transform="translate(-2199.141 -881.827)" fill="#ffa599"/>
          <path id="Path_5899" data-name="Path 5899" d="M2608.89,898.967c1.4,2.749,3.886,4.737,9.4,4.583l-1.7-6.817-7.784.936Z" transform="translate(-2199.171 -873.505)" fill="#e87c5d"/>
          <path id="Path_5900" data-name="Path 5900" d="M2521.531,1206.661c5.8,3.718,13.106,5.724,20.409,6.551,14.574,1.475,31.3-2.8,32.8-7.457-2.98-48.21-11.628-97.871-11.628-97.871h-21.91c-3.869,5.369-7.371,14.752-9.638,24.783C2530.035,1140.574,2523.9,1175.21,2521.531,1206.661Z" transform="translate(-2131.893 -1036.273)" fill="#008c86"/>
          <g id="Group_6549" data-name="Group 6549" transform="translate(436.107 181.188)">
            <path id="Path_5901" data-name="Path 5901" d="M2742.967,1592.383c0-.078-3.688-.081-7.633-.064-4.539.014-10.191.064-10.191.064a20.584,20.584,0,0,1,.4-6.251l7.111-.036a48.286,48.286,0,0,1,5.426,1.386c.227.069.471.119.721.179C2744.324,1588.941,2742.967,1592.545,2742.967,1592.383Z" transform="translate(-2724.899 -1586.096)" fill="#296acc"/>
            <path id="Path_5902" data-name="Path 5902" d="M2776.878,1597.045c0-.078-3.688-.081-7.633-.063a3.5,3.5,0,0,1-.187-1.136,3.982,3.982,0,0,1,2.932-3.7c.229.063.471.12.721.179C2778.235,1593.6,2776.878,1597.207,2776.878,1597.045Z" transform="translate(-2758.81 -1590.758)" fill="#80b3ff"/>
            <rect id="Rectangle_1763" data-name="Rectangle 1763" width="18.431" height="1.12" transform="translate(0 5.172)" fill="#80b3ff"/>
          </g>
          <g id="Group_6550" data-name="Group 6550" transform="translate(385.272 181.442)">
            <path id="Path_5903" data-name="Path 5903" d="M2515.993,1593.49c-.105,0-1.913-.021-4.152-.042-3.646-.035-8.438-.063-8.888.042-1.27-3.069,1.364-4.644,3.79-5.513,1.033-.366,2.032-.6,2.672-.773l6.177.035A20.529,20.529,0,0,1,2515.993,1593.49Z" transform="translate(-2502.59 -1587.204)" fill="#296acc"/>
            <rect id="Rectangle_1764" data-name="Rectangle 1764" width="13.647" height="1.12" transform="translate(13.647 6.291) rotate(180)" fill="#80b3ff"/>
          </g>
          <path id="Path_5904" data-name="Path 5904" d="M2511.841,1595.92c-3.646-.035-8.438-.063-8.888.042-1.27-3.069,1.364-4.645,3.79-5.513a5.038,5.038,0,0,1,4.338,1.431A3.483,3.483,0,0,1,2511.841,1595.92Z" transform="translate(-2117.318 -1408.234)" fill="#80b3ff"/>
          <path id="Path_5905" data-name="Path 5905" d="M2616.5,1108.957a27.083,27.083,0,0,1-10.944-2.265.5.5,0,0,1,.4-.916,27.791,27.791,0,0,0,21.477.008.5.5,0,0,1,.436.9A28.839,28.839,0,0,1,2616.5,1108.957Z" transform="translate(-2196.436 -1034.615)" fill="#fff"/>
          <g id="Group_6551" data-name="Group 6551" transform="translate(400.285 2.186)">
            <path id="Path_5906" data-name="Path 5906" d="M2591.972,831.258c-6.161,3.187-13.111.759-15.57-4.553-4.523-6.039-5.949-13.385-.85-17.391,5.948-4.643,14.9-2.488,16.51,6.617a12.121,12.121,0,0,1,2.246,4.462,5.891,5.891,0,0,1,.3,1.487A10.845,10.845,0,0,1,2591.972,831.258Z" transform="translate(-2571.328 -806.475)" fill="#ffa599"/>
            <path id="Path_5907" data-name="Path 5907" d="M2569.309,821.25s14.9-5.731,21.336-6.762c-1.673-5.11-8.315-13.1-17.865-7.889C2564.686,810.852,2569.309,821.25,2569.309,821.25Z" transform="translate(-2567.995 -804.902)" fill="#0e0e0e"/>
            <path id="Path_5908" data-name="Path 5908" d="M2576.293,839.384c-1.46,6.208-1,16.867,8.637,28.987L2581,869s-4.463-.8-11.406-16.525C2565.5,841.813,2572.046,837.848,2576.293,839.384Z" transform="translate(-2568.228 -831.238)" fill="#0e0e0e"/>
          </g>
          <path id="Path_5909" data-name="Path 5909" d="M2551.6,964.231c-.687,4.144-7.182,18.4-7.182,18.4l4.943,25.324-3.941,1.555s-9.757-20.96-9.687-27.01c.088-7.671,6.607-21.638,6.607-21.638C2545.707,954.818,2552.844,956.718,2551.6,964.231Z" transform="translate(-2142.84 -920.173)" fill="#ffa599"/>
          <path id="Path_5910" data-name="Path 5910" d="M2572.843,1173.638s-2.616,8.4.071,10.088,4.31-7.381,4.31-7.381,1.153,1.5,1.683,1.223-1.036-3.657-2.115-4.642S2573.575,1171.517,2572.843,1173.638Z" transform="translate(-2170.567 -1085.786)" fill="#ffa599"/>
          <g id="Group_6553" data-name="Group 6553" transform="translate(453.731)">
            <path id="Path_5911" data-name="Path 5911" d="M2813.661,853.94s1.222-1.245,1.793.651c1.987.711,3.8-1.588,4.587.5C2821.29,858.381,2814.867,859.681,2813.661,853.94Z" transform="translate(-2810.816 -840.208)" fill="#ffa599"/>
            <path id="Path_5912" data-name="Path 5912" d="M2818.984,827.394s-1.583-3.935-4.428-5.571c-1.077-.521-1.618-.181-1.618-.181l4.159,11.276C2819.112,834.335,2820.807,831.265,2818.984,827.394Z" transform="translate(-2810.259 -815.536)" fill="#ffa599"/>
            <g id="Group_6552" data-name="Group 6552">
              <path id="Path_5913" data-name="Path 5913" d="M2808.228,817.192l-6.983-20.637a1.64,1.64,0,0,1,.56-.75l7.184,21.683A2.049,2.049,0,0,1,2808.228,817.192Z" transform="translate(-2801.245 -795.703)" fill="#404040"/>
              <path id="Path_5914" data-name="Path 5914" d="M2803.687,795.462c.252-.153.587-.172,1.014.217,1.056.963,7.124,19.137,6.983,20.637-.069.732-.446.873-.813.829Z" transform="translate(-2803.127 -795.36)"/>
            </g>
            <path id="Path_5915" data-name="Path 5915" d="M2813.742,821.426s-1.282-.4-.775,2.464c.616,3.476,2.587,5.371,3.685,5.143C2817.828,828.788,2816.286,821.907,2813.742,821.426Z" transform="translate(-2810.19 -815.438)" fill="#ffa599"/>
          </g>
          <path id="Path_5916" data-name="Path 5916" d="M2650.235,863.66a.107.107,0,0,1-.029-.211c.292-.082,1.058-.375,1.1-.748.033-.32-1.274-1.327-2.214-1.94a.107.107,0,0,1,.117-.18c.4.258,2.368,1.576,2.31,2.141-.06.585-1.13.9-1.252.933A.107.107,0,0,1,2650.235,863.66Z" transform="translate(-2230.185 -845.624)" fill="#bd4a31"/>
          <path id="Path_5917" data-name="Path 5917" d="M2637.554,887.378a9.646,9.646,0,0,1-6.809.848C2633.637,890.562,2636.834,891.613,2637.554,887.378Z" transform="translate(-2216.082 -866.293)" fill="#bd4a31"/>
          <path id="Path_5918" data-name="Path 5918" d="M2626.9,863.425c.134.412.077.8-.127.867s-.479-.214-.613-.626-.077-.8.127-.867S2626.768,863.013,2626.9,863.425Z" transform="translate(-2212.493 -847.339)" fill="#0e0e0e"/>
          <path id="Path_5919" data-name="Path 5919" d="M2658.048,853.607c.116.358.067.7-.11.753s-.416-.186-.533-.544-.067-.695.111-.753S2657.932,853.249,2658.048,853.607Z" transform="translate(-2236.585 -839.835)" fill="#0e0e0e"/>
          <path id="Path_5920" data-name="Path 5920" d="M2625.517,877.586c.086.409.787.609,1.566.445s1.341-.628,1.255-1.037-.787-.609-1.566-.445S2625.431,877.177,2625.517,877.586Z" transform="translate(-2212.045 -857.902)" fill="#ff8f80"/>
          <path id="Path_5921" data-name="Path 5921" d="M2664.167,867.132h-.031c-.789.152-1.487-.03-1.578-.455-.091-.395.486-.851,1.245-1.032h.061A5.9,5.9,0,0,1,2664.167,867.132Z" transform="translate(-2240.598 -849.54)" fill="#ff8f80"/>
          <path id="Path_5928" data-name="Path 5928" d="M2551.6,964.231c-.687,4.144-7.182,18.4-7.182,18.4l4.943,25.324-3.941,1.555s-9.757-20.96-9.687-27.01c.088-7.671,6.607-21.638,6.607-21.638C2545.707,954.818,2552.844,956.718,2551.6,964.231Z" transform="translate(-2142.84 -920.173)" fill="#008c86"/>
          <path id="Path_5929" data-name="Path 5929" d="M-459.919,86.135" transform="translate(459.919 -13.98)" fill="none" stroke="#707070" stroke-width="1"/>
        </g>
        <path id="Path_5930" data-name="Path 5930" d="M-458.915,85.414" transform="translate(459.756 -13.863)" fill="none" stroke="#707070" stroke-width="1"/>
      </g>
    </g>
    <path id="Path_5925" data-name="Path 5925" d="M1849.9,14333.435s4.435,10.677,8.542,11.333,5.092-1.56,5.092-1.56v6.078l5.174,6.98s-3.45,10.923-13.47,4.435,10.184-5.42,10.184-5.42l-18.069-12.483Z" transform="translate(-546.803 -12969.223)" fill="#0e0e0e"/>
    <path id="Path_5926" data-name="Path 5926" d="M1845.886,14347.329s4.533,12.836,8.488,15.06,12.455-4.545,12.455-4.545l-7.392-6.571-11.5-4.6Z" transform="translate(-546.564 -12971.37)" fill="#0e0e0e"/>
    <path id="Path_5927" data-name="Path 5927" d="M1868.081,14353.085s3.94,4.488,2.847,6.7-9-7.133-9-7.133Z" transform="translate(-549.168 -12972.341)" fill="#0e0e0e"/>
  </g>
</svg>
